# 3ds Max Wavefront OBJ Exporter v0.97b - (c)2007 guruware
# File Created: 06.05.2014 10:22:50

mtllib groundPlane.mtl

#
# object Plane001
#

v  -5997.6245 0.0000 3000.9502
v  -5997.6245 0.0000 6000.9502
v  -2997.6248 0.0000 3000.9502
v  -2997.6248 0.0000 6000.9502
v  2.3753 0.0000 3000.9502
v  2.3753 0.0000 6000.9502
v  3002.3752 0.0000 3000.9502
v  3002.3752 0.0000 6000.9502
v  6002.3755 0.0000 3000.9502
v  6002.3755 0.0000 6000.9502
v  -5997.6245 0.0000 0.9501
v  -2997.6248 0.0000 0.9501
v  2.3753 0.0000 0.9501
v  3002.3752 0.0000 0.9501
v  6002.3755 0.0000 0.9501
v  -5997.6245 0.0000 -2999.0498
v  -2997.6248 0.0000 -2999.0498
v  2.3753 0.0000 -2999.0498
v  3002.3752 0.0000 -2999.0498
v  6002.3755 0.0000 -2999.0498
v  -5997.6245 0.0000 -5999.0498
v  -2997.6248 0.0000 -5999.0498
v  2.3753 0.0000 -5999.0498
v  3002.3752 0.0000 -5999.0498
v  6002.3755 0.0000 -5999.0498
# 25 vertices

vn 0.0000 1.0000 -0.0000
# 1 vertex normals

vt -67.8936 -33.6968 0.0000
vt -67.8936 -67.8936 0.0000
vt -33.6968 -33.6968 0.0000
vt -33.6968 -67.8936 0.0000
vt 0.5000 -33.6968 0.0000
vt 0.5000 -67.8936 0.0000
vt 34.6968 -33.6968 0.0000
vt 34.6968 -67.8936 0.0000
vt 68.8936 -33.6968 0.0000
vt 68.8936 -67.8936 0.0000
vt -67.8936 0.5000 0.0000
vt -33.6968 0.5000 0.0000
vt 0.5000 0.5000 0.0000
vt 34.6968 0.5000 0.0000
vt 68.8936 0.5000 0.0000
vt -67.8936 34.6968 0.0000
vt -33.6968 34.6968 0.0000
vt 0.5000 34.6968 0.0000
vt 34.6968 34.6968 0.0000
vt 68.8936 34.6968 0.0000
vt -67.8936 68.8936 0.0000
vt -33.6968 68.8936 0.0000
vt 0.5000 68.8936 0.0000
vt 34.6968 68.8936 0.0000
vt 68.8936 68.8936 0.0000
# 25 texture coords

g Plane001
usemtl GrassMat
f 1/1/1 2/2/1 3/3/1 
f 4/4/1 3/3/1 2/2/1 
f 3/3/1 4/4/1 5/5/1 
f 6/6/1 5/5/1 4/4/1 
f 5/5/1 6/6/1 7/7/1 
f 8/8/1 7/7/1 6/6/1 
f 7/7/1 8/8/1 9/9/1 
f 10/10/1 9/9/1 8/8/1 
f 11/11/1 1/1/1 12/12/1 
f 3/3/1 12/12/1 1/1/1 
f 12/12/1 3/3/1 13/13/1 
f 5/5/1 13/13/1 3/3/1 
f 13/13/1 5/5/1 14/14/1 
f 7/7/1 14/14/1 5/5/1 
f 14/14/1 7/7/1 15/15/1 
f 9/9/1 15/15/1 7/7/1 
f 16/16/1 11/11/1 17/17/1 
f 12/12/1 17/17/1 11/11/1 
f 17/17/1 12/12/1 18/18/1 
f 13/13/1 18/18/1 12/12/1 
f 18/18/1 13/13/1 19/19/1 
f 14/14/1 19/19/1 13/13/1 
f 19/19/1 14/14/1 20/20/1 
f 15/15/1 20/20/1 14/14/1 
f 21/21/1 16/16/1 22/22/1 
f 17/17/1 22/22/1 16/16/1 
f 22/22/1 17/17/1 23/23/1 
f 18/18/1 23/23/1 17/17/1 
f 23/23/1 18/18/1 24/24/1 
f 19/19/1 24/24/1 18/18/1 
f 24/24/1 19/19/1 25/25/1 
f 20/20/1 25/25/1 19/19/1 
# 32 faces

#
# object Tube002
#

v  -4.0534 0.0000 -1202.3955
v  -4.0534 0.5000 -1202.3955
v  269.5628 0.5000 -1154.1497
v  269.5628 0.0000 -1154.1497
v  -4.0534 0.5000 -1002.3955
v  201.1588 0.5000 -966.2111
v  -4.0534 0.0000 -1002.3955
v  201.1588 0.0000 -966.2111
v  510.1768 0.5000 -1015.2310
v  510.1768 0.0000 -1015.2310
v  381.6192 0.5000 -862.0221
v  381.6192 0.0000 -862.0221
v  688.7670 0.5000 -802.3955
v  688.7670 0.0000 -802.3955
v  515.5620 0.5000 -702.3955
v  515.5620 0.0000 -702.3955
v  783.7929 0.5000 -541.3140
v  783.7929 0.0000 -541.3140
v  586.8313 0.5000 -506.5843
v  586.8313 0.0000 -506.5843
v  783.7928 0.5000 532.5947
v  783.7928 0.0000 532.5947
v  586.8313 0.5000 497.8650
v  586.8313 0.0000 497.8650
v  688.7669 0.5000 793.6761
v  688.7669 0.0000 793.6761
v  515.5618 0.5000 693.6760
v  515.5618 0.0000 693.6760
v  510.1766 0.5000 1006.5117
v  510.1766 0.0000 1006.5117
v  381.6191 0.5000 853.3027
v  381.6191 0.0000 853.3027
v  269.5626 0.5000 1145.4302
v  269.5626 0.0000 1145.4302
v  201.1586 0.5000 957.4917
v  201.1586 0.0000 957.4917
v  -4.0536 0.5000 1193.6760
v  -4.0536 0.0000 1193.6760
v  -4.0535 0.5000 993.6760
v  -4.0535 0.0000 993.6760
v  -277.6697 0.5000 1145.4301
v  -277.6697 0.0000 1145.4301
v  -209.2656 0.5000 957.4915
v  -209.2656 0.0000 957.4915
v  -518.2836 0.5000 1006.5115
v  -518.2836 0.0000 1006.5115
v  -389.7260 0.5000 853.3026
v  -389.7260 0.0000 853.3026
v  -696.8738 0.5000 793.6759
v  -696.8738 0.0000 793.6759
v  -523.6686 0.5000 693.6759
v  -523.6686 0.0000 693.6759
v  -791.8996 0.5000 532.5945
v  -791.8996 0.0000 532.5945
v  -594.9380 0.5000 497.8649
v  -594.9380 0.0000 497.8649
v  -791.8995 0.5000 -541.3141
v  -791.8995 0.0000 -541.3141
v  -594.9380 0.5000 -506.5844
v  -594.9380 0.0000 -506.5844
v  -696.8737 0.5000 -802.3955
v  -696.8737 0.0000 -802.3955
v  -523.6686 0.5000 -702.3955
v  -523.6686 0.0000 -702.3955
v  -518.2834 0.5000 -1015.2312
v  -518.2834 0.0000 -1015.2312
v  -389.7259 0.5000 -862.0222
v  -389.7259 0.0000 -862.0222
v  -277.6694 0.5000 -1154.1497
v  -277.6694 0.0000 -1154.1497
v  -209.2654 0.5000 -966.2112
v  -209.2654 0.0000 -966.2112
# 72 vertices

vn -0.0000 0.0000 -1.0000
vn 0.3420 0.0000 -0.9397
vn 0.0000 1.0000 -0.0000
vn -0.0000 0.0000 1.0000
vn -0.3420 0.0000 0.9397
vn 0.0000 -1.0000 -0.0000
vn 0.6428 0.0000 -0.7660
vn -0.6428 0.0000 0.7660
vn 0.8660 0.0000 -0.5000
vn -0.8660 0.0000 0.5000
vn 0.9848 0.0000 -0.1736
vn -0.9848 0.0000 0.1736
vn 0.9848 0.0000 0.1736
vn -0.9848 0.0000 -0.1736
vn 0.8660 0.0000 0.5000
vn -0.8660 0.0000 -0.5000
vn 0.6428 0.0000 0.7660
vn -0.6428 0.0000 -0.7660
vn 0.3420 0.0000 0.9397
vn -0.3420 0.0000 -0.9397
vn 0.0000 0.0000 -1.0000
# 21 vertex normals

vt 0.0000 0.0000 0.0000
vt 0.2500 0.0000 0.0000
vt 0.2500 0.0556 0.0000
vt 0.0000 0.0556 0.0000
vt 0.5000 18.5894 0.0000
vt 0.5000 15.5696 0.0000
vt 3.5985 15.0232 0.0000
vt 4.6314 17.8609 0.0000
vt 0.5000 0.0000 0.0000
vt 0.7500 0.0000 0.0000
vt 0.7500 0.0556 0.0000
vt 0.5000 0.0556 0.0000
vt 1.0000 0.0000 0.0000
vt 1.0000 0.0556 0.0000
vt 0.2500 0.1111 0.0000
vt 0.0000 0.1111 0.0000
vt 6.3234 13.4500 0.0000
vt 8.2645 15.7634 0.0000
vt 0.7500 0.1111 0.0000
vt 0.5000 0.1111 0.0000
vt 1.0000 0.1111 0.0000
vt 0.2500 0.1667 0.0000
vt 0.0000 0.1667 0.0000
vt 8.3458 11.0398 0.0000
vt 10.9610 12.5497 0.0000
vt 0.7500 0.1667 0.0000
vt 0.5000 0.1667 0.0000
vt 1.0000 0.1667 0.0000
vt 0.2500 0.2222 0.0000
vt 0.0000 0.2222 0.0000
vt 9.4219 8.0832 0.0000
vt 12.3959 8.6076 0.0000
vt 0.7500 0.2222 0.0000
vt 0.5000 0.2222 0.0000
vt 1.0000 0.2222 0.0000
vt 0.2500 0.2778 0.0000
vt 0.0000 0.2778 0.0000
vt 9.4219 -7.0832 0.0000
vt 12.3959 -7.6076 0.0000
vt 0.7500 0.2778 0.0000
vt 0.5000 0.2778 0.0000
vt 1.0000 0.2778 0.0000
vt 0.2500 0.3333 0.0000
vt 0.0000 0.3333 0.0000
vt 8.3458 -10.0398 0.0000
vt 10.9610 -11.5497 0.0000
vt 0.7500 0.3333 0.0000
vt 0.5000 0.3333 0.0000
vt 1.0000 0.3333 0.0000
vt 0.2500 0.3889 0.0000
vt 0.0000 0.3889 0.0000
vt 6.3234 -12.4500 0.0000
vt 8.2645 -14.7634 0.0000
vt 0.7500 0.3889 0.0000
vt 0.5000 0.3889 0.0000
vt 1.0000 0.3889 0.0000
vt 0.2500 0.4444 0.0000
vt 0.0000 0.4444 0.0000
vt 3.5985 -14.0232 0.0000
vt 4.6314 -16.8609 0.0000
vt 0.7500 0.4444 0.0000
vt 0.5000 0.4444 0.0000
vt 1.0000 0.4444 0.0000
vt 0.2500 0.5000 0.0000
vt 0.0000 0.5000 0.0000
vt 0.5000 -14.5696 0.0000
vt 0.5000 -17.5894 0.0000
vt 0.7500 0.5000 0.0000
vt 0.5000 0.5000 0.0000
vt 1.0000 0.5000 0.0000
vt 0.2500 0.5556 0.0000
vt 0.0000 0.5556 0.0000
vt -2.5985 -14.0232 0.0000
vt -3.6314 -16.8609 0.0000
vt 0.7500 0.5556 0.0000
vt 0.5000 0.5556 0.0000
vt 1.0000 0.5556 0.0000
vt 0.2500 0.6111 0.0000
vt 0.0000 0.6111 0.0000
vt -5.3234 -12.4500 0.0000
vt -7.2645 -14.7634 0.0000
vt 0.7500 0.6111 0.0000
vt 0.5000 0.6111 0.0000
vt 1.0000 0.6111 0.0000
vt 0.2500 0.6667 0.0000
vt 0.0000 0.6667 0.0000
vt -7.3458 -10.0398 0.0000
vt -9.9610 -11.5497 0.0000
vt 0.7500 0.6667 0.0000
vt 0.5000 0.6667 0.0000
vt 1.0000 0.6667 0.0000
vt 0.2500 0.7222 0.0000
vt 0.0000 0.7222 0.0000
vt -8.4219 -7.0832 0.0000
vt -11.3959 -7.6076 0.0000
vt 0.7500 0.7222 0.0000
vt 0.5000 0.7222 0.0000
vt 1.0000 0.7222 0.0000
vt 0.2500 0.7778 0.0000
vt 0.0000 0.7778 0.0000
vt -8.4219 8.0832 0.0000
vt -11.3959 8.6076 0.0000
vt 0.7500 0.7778 0.0000
vt 0.5000 0.7778 0.0000
vt 1.0000 0.7778 0.0000
vt 0.2500 0.8333 0.0000
vt 0.0000 0.8333 0.0000
vt -7.3458 11.0398 0.0000
vt -9.9610 12.5497 0.0000
vt 0.7500 0.8333 0.0000
vt 0.5000 0.8333 0.0000
vt 1.0000 0.8333 0.0000
vt 0.2500 0.8889 0.0000
vt 0.0000 0.8889 0.0000
vt -5.3233 13.4500 0.0000
vt -7.2645 15.7634 0.0000
vt 0.7500 0.8889 0.0000
vt 0.5000 0.8889 0.0000
vt 1.0000 0.8889 0.0000
vt 0.2500 0.9444 0.0000
vt 0.0000 0.9444 0.0000
vt -2.5985 15.0232 0.0000
vt -3.6314 17.8609 0.0000
vt 0.7500 0.9444 0.0000
vt 0.5000 0.9444 0.0000
vt 1.0000 0.9444 0.0000
vt 0.2500 1.0000 0.0000
vt 0.0000 1.0000 0.0000
vt 0.7500 1.0000 0.0000
vt 0.5000 1.0000 0.0000
vt 1.0000 1.0000 0.0000
# 131 texture coords

g Tube002
usemtl TrackMat
f 26/26/2 27/27/2 28/28/3 
f 28/28/3 29/29/3 26/26/2 
f 27/30/4 30/31/4 31/32/4 
f 31/32/4 28/33/4 27/30/4 
f 30/34/5 32/35/5 33/36/6 
f 33/36/6 31/37/6 30/34/5 
f 32/35/7 26/38/7 29/39/7 
f 29/39/7 33/36/7 32/35/7 
f 29/29/3 28/28/3 34/40/8 
f 34/40/8 35/41/8 29/29/3 
f 28/33/4 31/32/4 36/42/4 
f 36/42/4 34/43/4 28/33/4 
f 31/37/6 33/36/6 37/44/9 
f 37/44/9 36/45/9 31/37/6 
f 33/36/7 29/39/7 35/46/7 
f 35/46/7 37/44/7 33/36/7 
f 35/41/8 34/40/8 38/47/10 
f 38/47/10 39/48/10 35/41/8 
f 34/43/4 36/42/4 40/49/4 
f 40/49/4 38/50/4 34/43/4 
f 36/45/9 37/44/9 41/51/11 
f 41/51/11 40/52/11 36/45/9 
f 37/44/7 35/46/7 39/53/7 
f 39/53/7 41/51/7 37/44/7 
f 39/48/10 38/47/10 42/54/12 
f 42/54/12 43/55/12 39/48/10 
f 38/50/4 40/49/4 44/56/4 
f 44/56/4 42/57/4 38/50/4 
f 40/52/11 41/51/11 45/58/13 
f 45/58/13 44/59/13 40/52/11 
f 41/51/7 39/53/7 43/60/7 
f 43/60/7 45/58/7 41/51/7 
f 43/55/12 42/54/12 46/61/14 
f 46/61/14 47/62/14 43/55/12 
f 42/57/4 44/56/4 48/63/4 
f 48/63/4 46/64/4 42/57/4 
f 44/59/13 45/58/13 49/65/15 
f 49/65/15 48/66/15 44/59/13 
f 45/58/7 43/60/7 47/67/7 
f 47/67/7 49/65/7 45/58/7 
f 47/62/14 46/61/14 50/68/16 
f 50/68/16 51/69/16 47/62/14 
f 46/64/4 48/63/4 52/70/4 
f 52/70/4 50/71/4 46/64/4 
f 48/66/15 49/65/15 53/72/17 
f 53/72/17 52/73/17 48/66/15 
f 49/65/7 47/67/7 51/74/7 
f 51/74/7 53/72/7 49/65/7 
f 51/69/16 50/68/16 54/75/18 
f 54/75/18 55/76/18 51/69/16 
f 50/71/4 52/70/4 56/77/4 
f 56/77/4 54/78/4 50/71/4 
f 52/73/17 53/72/17 57/79/19 
f 57/79/19 56/80/19 52/73/17 
f 53/72/7 51/74/7 55/81/7 
f 55/81/7 57/79/7 53/72/7 
f 55/76/18 54/75/18 58/82/20 
f 58/82/20 59/83/20 55/76/18 
f 54/78/4 56/77/4 60/84/4 
f 60/84/4 58/85/4 54/78/4 
f 56/80/19 57/79/19 61/86/21 
f 61/86/21 60/87/21 56/80/19 
f 57/79/7 55/81/7 59/88/7 
f 59/88/7 61/86/7 57/79/7 
f 59/83/20 58/82/20 62/89/5 
f 62/89/5 63/90/5 59/83/20 
f 58/85/4 60/84/4 64/91/4 
f 64/91/4 62/92/4 58/85/4 
f 60/87/21 61/86/21 65/93/22 
f 65/93/22 64/94/22 60/87/21 
f 61/86/7 59/88/7 63/95/7 
f 63/95/7 65/93/7 61/86/7 
f 63/90/5 62/89/5 66/96/6 
f 66/96/6 67/97/6 63/90/5 
f 62/92/4 64/91/4 68/98/4 
f 68/98/4 66/99/4 62/92/4 
f 64/94/22 65/93/22 69/100/3 
f 69/100/3 68/101/3 64/94/22 
f 65/93/7 63/95/7 67/102/7 
f 67/102/7 69/100/7 65/93/7 
f 67/97/6 66/96/6 70/103/9 
f 70/103/9 71/104/9 67/97/6 
f 66/99/4 68/98/4 72/105/4 
f 72/105/4 70/106/4 66/99/4 
f 68/101/3 69/100/3 73/107/8 
f 73/107/8 72/108/8 68/101/3 
f 69/100/7 67/102/7 71/109/7 
f 71/109/7 73/107/7 69/100/7 
f 71/104/9 70/103/9 74/110/11 
f 74/110/11 75/111/11 71/104/9 
f 70/106/4 72/105/4 76/112/4 
f 76/112/4 74/113/4 70/106/4 
f 72/108/8 73/107/8 77/114/10 
f 77/114/10 76/115/10 72/108/8 
f 73/107/7 71/109/7 75/116/7 
f 75/116/7 77/114/7 73/107/7 
f 75/111/11 74/110/11 78/117/13 
f 78/117/13 79/118/13 75/111/11 
f 74/113/4 76/112/4 80/119/4 
f 80/119/4 78/120/4 74/113/4 
f 76/115/10 77/114/10 81/121/12 
f 81/121/12 80/122/12 76/115/10 
f 77/114/7 75/116/7 79/123/7 
f 79/123/7 81/121/7 77/114/7 
f 79/118/13 78/117/13 82/124/15 
f 82/124/15 83/125/15 79/118/13 
f 78/120/4 80/119/4 84/126/4 
f 84/126/4 82/127/4 78/120/4 
f 80/122/12 81/121/12 85/128/14 
f 85/128/14 84/129/14 80/122/12 
f 81/121/7 79/123/7 83/130/7 
f 83/130/7 85/128/7 81/121/7 
f 83/125/15 82/124/15 86/131/17 
f 86/131/17 87/132/17 83/125/15 
f 82/127/4 84/126/4 88/133/4 
f 88/133/4 86/134/4 82/127/4 
f 84/129/14 85/128/14 89/135/16 
f 89/135/16 88/136/16 84/129/14 
f 85/128/7 83/130/7 87/137/7 
f 87/137/7 89/135/7 85/128/7 
f 87/132/17 86/131/17 90/138/19 
f 90/138/19 91/139/19 87/132/17 
f 86/134/4 88/133/4 92/140/4 
f 92/140/4 90/141/4 86/134/4 
f 88/136/16 89/135/16 93/142/18 
f 93/142/18 92/143/18 88/136/16 
f 89/135/7 87/137/7 91/144/7 
f 91/144/7 93/142/7 89/135/7 
f 91/139/19 90/138/19 94/145/21 
f 94/145/21 95/146/21 91/139/19 
f 90/141/4 92/140/4 96/147/4 
f 96/147/4 94/148/4 90/141/4 
f 92/143/18 93/142/18 97/149/20 
f 97/149/20 96/150/20 92/143/18 
f 93/142/7 91/144/7 95/151/7 
f 95/151/7 97/149/7 93/142/7 
f 95/146/21 94/145/21 27/152/2 
f 27/152/2 26/153/2 95/146/21 
f 94/148/4 96/147/4 30/31/4 
f 30/31/4 27/30/4 94/148/4 
f 96/150/20 97/149/20 32/154/5 
f 32/154/5 30/155/5 96/150/20 
f 97/149/7 95/151/7 26/156/7 
f 26/156/7 32/154/7 97/149/7 
# 144 faces

